<?xml version="1.0" encoding="UTF-8" standalone="no"?>
<svg
   xmlns:dc="http://purl.org/dc/elements/1.1/"
   xmlns:cc="http://creativecommons.org/ns#"
   xmlns:rdf="http://www.w3.org/1999/02/22-rdf-syntax-ns#"
   xmlns:svg="http://www.w3.org/2000/svg"
   xmlns="http://www.w3.org/2000/svg"
   xmlns:sodipodi="http://sodipodi.sourceforge.net/DTD/sodipodi-0.dtd"
   xmlns:inkscape="http://www.inkscape.org/namespaces/inkscape"
   width="60"
   height="60"
   viewBox="0 0 60 60"
   class="feather feather-package"
   version="1.1"
   id="svg10"
   sodipodi:docname="package.svg"
   style="fill:none;stroke:currentColor;stroke-width:2;stroke-linecap:round;stroke-linejoin:round"
   inkscape:version="0.92.3 (2405546, 2018-03-11)">
  <metadata
     id="metadata16">
    <rdf:RDF>
      <cc:Work
         rdf:about="">
        <dc:format>image/svg+xml</dc:format>
        <dc:type
           rdf:resource="http://purl.org/dc/dcmitype/StillImage" />
        <dc:title></dc:title>
      </cc:Work>
    </rdf:RDF>
  </metadata>
  <defs
     id="defs14" />
  <sodipodi:namedview
     pagecolor="#ffffff"
     bordercolor="#666666"
     borderopacity="1"
     objecttolerance="10"
     gridtolerance="10"
     guidetolerance="10"
     inkscape:pageopacity="0"
     inkscape:pageshadow="2"
     inkscape:window-width="1130"
     inkscape:window-height="859"
     id="namedview12"
     showgrid="false"
     inkscape:zoom="3.4766083"
     inkscape:cx="0.91636963"
     inkscape:cy="36.070394"
     inkscape:window-x="247"
     inkscape:window-y="92"
     inkscape:window-maximized="0"
     inkscape:current-layer="svg10" />
  <path
     d="M 32.196438,2.1277136 53.534773,12.753695 a 5.3345839,5.3129904 0 0 1 2.960694,4.755126 V 42.82522 a 5.3345839,5.3129904 0 0 1 -2.960694,4.755126 L 32.196438,58.206327 a 5.3345839,5.3129904 0 0 1 -4.774453,0 L 6.0836488,47.580346 A 5.3345839,5.3129904 0 0 1 3.1496277,42.798655 V 17.508821 A 5.3345839,5.3129904 0 0 1 6.1103218,12.753695 L 27.448658,2.1277136 a 5.3345839,5.3129904 0 0 1 4.74778,0 z"
     id="path2"
     inkscape:connector-curvature="0"
     style="stroke-width:1.99999976" />
  <polyline
     points="2.32 6.16 12 11 21.68 6.16"
     id="polyline4"
     transform="matrix(2.6672921,0,0,2.6564953,-2.1849563,-1.7242052)"
     style="stroke-width:0.75134635" />
  <line
     x1="29.822548"
     y1="58.737633"
     x2="29.822548"
     y2="27.497244"
     id="line6"
     style="stroke-width:1.99999976" />
  <line
     x1="16.486088"
     y1="7.5735288"
     x2="43.159008"
     y2="20.856005"
     id="line8"
     style="stroke-width:1.99999976" />
</svg>
